<?xml version="1.0" encoding="UTF-8"?>
<svg version="1.1" xmlns="http://www.w3.org/2000/svg" width="192" height="192">
<path d="M0 0 C63.36 0 126.72 0 192 0 C192 63.36 192 126.72 192 192 C128.64 192 65.28 192 0 192 C0 128.64 0 65.28 0 0 Z " fill="#F9F9F9" transform="translate(0,0)"/>
<path d="M0 0 C60.06 0 120.12 0 182 0 C182 25.41 182 50.82 182 77 C121.94 77 61.88 77 0 77 C0 51.59 0 26.18 0 0 Z " fill="#C43220" transform="translate(5,8)"/>
<path d="M0 0 C60.06 0 120.12 0 182 0 C182 25.41 182 50.82 182 77 C121.94 77 61.88 77 0 77 C0 51.59 0 26.18 0 0 Z M14.9765625 18.953125 C8.04698653 26.58980056 7.21120427 32.38675062 7.49609375 42.4921875 C8.03932438 49.80083362 11.74701794 53.92811179 16.89453125 58.7890625 C34.957035 73.72465623 65.18959646 72.33819344 87.22705078 72.20581055 C90.39233396 72.18739917 93.55732467 72.1853029 96.72265625 72.18554688 C115.52587535 72.32367529 115.52587535 72.32367529 134.0625 69.5625 C138.47859579 68.53698442 142.81969494 67.72366057 147.3125 67.125 C157.01009919 65.53016936 164.33268705 60.06895831 171 53 C175.80539103 45.91370908 175.94552045 38.1691125 174.4375 29.875 C173.06817725 25.00298936 169.71893334 21.32136363 166 18 C165.01 17.67 164.02 17.34 163 17 C163 16.34 163 15.68 163 15 C131.07180044 -2.07196109 43.03409873 -8.12943893 14.9765625 18.953125 Z " fill="#232323" transform="translate(5,8)"/>
<path d="M0 0 C0 0.66 0 1.32 0 2 C0.89332031 2.39832031 0.89332031 2.39832031 1.8046875 2.8046875 C5.89733081 5.03306624 8.95498536 8.61914119 10.828125 12.88671875 C12.67337098 19.38462067 12.83387523 26.15501393 10.9375 32.625 C6.08917343 41.07047208 -0.83035298 47.94846086 -10.20703125 51.06640625 C-14.51286674 52.126236 -18.8088197 52.88024891 -23.1875 53.5625 C-24.76455866 53.81231839 -26.34139089 54.06357135 -27.91796875 54.31640625 C-28.60656982 54.42412354 -29.2951709 54.53184082 -30.00463867 54.64282227 C-31.99983494 54.97209737 -31.99983494 54.97209737 -33.92382812 55.50854492 C-46.07987898 58.38602968 -59.78652038 57.24296801 -72.1875 57.25 C-73.78813797 57.25101212 -73.78813797 57.25101212 -75.42111206 57.25204468 C-131.21933987 57.19599133 -131.21933987 57.19599133 -147 43 C-149.22792499 40.4634447 -151.16098609 37.82786074 -153 35 C-153.66 34.01 -154.32 33.02 -155 32 C-156.70068531 13.90112791 -156.70068531 13.90112791 -151.546875 7.53125 C-151.03640625 7.0259375 -150.5259375 6.520625 -150 6 C-149.46890625 5.4534375 -148.9378125 4.906875 -148.390625 4.34375 C-137.70166352 -5.65876442 -122.27859941 -8.36017326 -108.1875 -9.75 C-106.97755371 -9.87141357 -105.76760742 -9.99282715 -104.52099609 -10.11791992 C-71.69681618 -13.02041897 -29.88733901 -15.98071597 0 0 Z M-127 -1 C-127.92039062 -0.76925781 -128.84078125 -0.53851562 -129.7890625 -0.30078125 C-138.7753764 2.21311163 -145.30567276 6.8097595 -150.74609375 14.453125 C-152.92978472 18.88853469 -152.71764014 23.17962471 -152 28 C-148.87430158 35.80088838 -142.60239773 41.72472629 -135 45 C-131.49059411 46.02896436 -127.94504492 46.83598598 -124.375 47.625 C-123.45332031 47.8415625 -122.53164062 48.058125 -121.58203125 48.28125 C-110.4333816 50.79318497 -99.26466773 51.16470637 -87.87109375 51.23828125 C-86.02826561 51.25038887 -86.02826561 51.25038887 -84.14820862 51.26274109 C-81.55560681 51.27649459 -78.96298755 51.28725527 -76.37036133 51.29516602 C-73.77525342 51.30660389 -71.18016747 51.32692279 -68.58520508 51.35668945 C-50.34633467 51.56504722 -32.95588468 50.25940147 -15 47 C-15 46.34 -15 45.68 -15 45 C-13.700625 44.79375 -12.40125 44.5875 -11.0625 44.375 C-3.62068026 42.71995807 2.82659124 38.43400517 7 32 C8.10111689 28.69664934 8.20226528 26.10167863 8.25 22.625 C8.27578125 21.50351562 8.3015625 20.38203125 8.328125 19.2265625 C7.77888669 13.82571909 5.0393131 10.5790671 1.0625 7.0625 C-3.84642358 3.26597869 -8.81968631 1.39476427 -14.6875 -0.375 C-15.86977173 -0.73259399 -15.86977173 -0.73259399 -17.07592773 -1.09741211 C-29.41280749 -4.52136921 -41.9434249 -5.30687309 -54.68359375 -5.265625 C-56.03630136 -5.26697941 -57.38900849 -5.26892629 -58.74171448 -5.27142334 C-61.55092082 -5.2743393 -64.35999833 -5.27019348 -67.16918945 -5.26074219 C-70.72025542 -5.24935926 -74.27102118 -5.25609932 -77.8220768 -5.26763344 C-102.67759427 -5.55069729 -102.67759427 -5.55069729 -127 -1 Z " fill="#E9DFDE" transform="translate(168,23)"/>
<path d="M0 0 C63.36 0 126.72 0 192 0 C192 63.36 192 126.72 192 192 C128.64 192 65.28 192 0 192 C0 128.64 0 65.28 0 0 Z M2.06593895 2.0695734 C0.42729405 5.03717646 0.58750597 7.97911095 0.61904907 11.28123474 C0.6143691 12.02826583 0.60968913 12.77529693 0.60486734 13.54496533 C0.5928734 16.05546517 0.60239152 18.56542356 0.61181641 21.07592773 C0.60775262 22.87281616 0.60241182 24.66970208 0.59588623 26.46658325 C0.58218292 31.35294403 0.58752396 36.23911527 0.59702349 41.12547946 C0.60460566 46.23389122 0.59757839 51.34228648 0.59286499 56.45069885 C0.58740273 65.03137126 0.59461087 73.61196628 0.60888672 82.19262695 C0.62520893 92.11798765 0.61992972 102.04316343 0.6034075 111.96851963 C0.58979983 120.48323795 0.58786961 128.99790055 0.59572351 137.51262623 C0.60040465 142.60108888 0.60101288 147.68946459 0.59111404 152.77792168 C0.58245731 157.56236436 0.58844263 162.34656839 0.60579681 167.13098526 C0.6097688 168.88860363 0.60861547 170.64624203 0.60200882 172.40385246 C0.59383108 174.80010139 0.60406873 177.19558187 0.61904907 179.59178162 C0.61235691 180.29012743 0.60566474 180.98847324 0.59876978 181.70798105 C0.6335479 184.56898732 0.91288901 186.80131119 2.06593895 189.43126774 C4.94816369 191.76906309 7.77504986 191.552867 11.32592773 191.50793457 C12.07774795 191.51417453 12.82956816 191.5204145 13.6041708 191.52684355 C16.13096132 191.54283674 18.65679557 191.53014523 21.18359375 191.51757812 C22.99195927 191.52299646 24.80032039 191.53011748 26.6086731 191.53881836 C31.52600504 191.55708907 36.44300215 191.54996876 41.36034012 191.53730202 C46.49992035 191.52719373 51.63947141 191.53656164 56.77905273 191.54284668 C65.41102256 191.55012943 74.04285561 191.54051893 82.67480469 191.52148438 C92.66271774 191.49971446 102.65030421 191.50676538 112.63820934 191.52879 C121.20472864 191.54692613 129.77114948 191.54951107 138.33768177 191.53903532 C143.45799426 191.53279055 148.57815312 191.53199171 153.69845581 191.54518127 C158.51169033 191.55671319 163.32450271 191.54876287 168.1376915 191.52560425 C169.9070147 191.5203029 171.67637326 191.5218552 173.44568253 191.53065491 C175.85562977 191.54153822 178.26421268 191.52793594 180.67407227 191.50793457 C181.37922187 191.51685746 182.08437147 191.52578034 182.81088924 191.53497362 C185.79499831 191.48671946 187.58454566 191.33817837 189.93406105 189.42568111 C191.36728564 186.16419431 191.41491767 183.17926864 191.38095093 179.6811676 C191.38797089 178.57264833 191.38797089 178.57264833 191.39513266 177.44173473 C191.40710295 174.96431076 191.39761768 172.48743789 191.38818359 170.01000977 C191.39224843 168.23430051 191.39758982 166.45859377 191.40411377 164.68289185 C191.4178046 159.85850375 191.41248116 155.03430786 191.40297651 150.20991635 C191.39538789 145.16337133 191.40242342 140.1168429 191.40713501 135.07029724 C191.41259539 126.59395388 191.40539407 118.11768889 191.39111328 109.64135742 C191.3747915 99.84039511 191.38007072 90.03962006 191.3965925 80.2386623 C191.4102056 71.82666723 191.41212772 63.41472855 191.40427649 55.00272602 C191.39959834 49.97740321 191.39897895 44.95216843 191.40888596 39.92685127 C191.41755057 35.20148707 191.4115429 30.47636427 191.39420319 25.75102615 C191.39023542 24.01640283 191.39137734 22.28175919 191.39799118 20.54714394 C191.40618557 18.17976011 191.39591105 15.8131505 191.38095093 13.44581604 C191.39098918 12.41536261 191.39098918 12.41536261 191.40123022 11.36409193 C191.34915009 7.11697309 190.94408985 4.15631442 188 1 C185.35078146 0.48920239 183.32791924 0.33142883 180.67407227 0.37854004 C179.92225205 0.37215122 179.17043184 0.3657624 178.3958292 0.35917997 C175.86881832 0.34388161 173.34336327 0.36442162 170.81640625 0.38476562 C169.00804117 0.38126586 167.19967916 0.37560892 165.3913269 0.36795044 C160.47390112 0.35367196 155.55703245 0.37079385 150.63965988 0.39423561 C145.50009082 0.41430242 140.36054585 0.40846723 135.22094727 0.40612793 C126.58893615 0.40618155 117.95714361 0.4259655 109.32519531 0.45800781 C99.33731803 0.49490257 89.34972718 0.50368385 79.36179066 0.4967103 C69.76425612 0.49041085 60.16682009 0.50114925 50.56930542 0.52067566 C46.48003743 0.52886266 42.3908197 0.53155682 38.30154419 0.52998352 C33.48835049 0.52910628 28.67543012 0.54327731 23.8623085 0.56921005 C22.09299164 0.57638852 20.32364572 0.57844743 18.55431747 0.57509232 C16.14455505 0.57139358 13.73559745 0.58606814 11.32592773 0.60559082 C10.62077813 0.60026289 9.91562853 0.59493497 9.18911076 0.58944559 C6.50625363 0.62711244 4.43755221 0.75802511 2.06593895 2.0695734 Z " fill="#D4D4D4" transform="translate(0,0)"/>
<path d="M0 0 C12 0 12 0 15.125 1.6875 C19.54810136 7.14265835 19.47298036 12.74183601 19.39453125 19.53125 C18.85724528 24.25511079 17.26929931 27.56228224 14 31 C9.81537205 33.09231398 4.67855628 32 0 32 C0 21.44 0 10.88 0 0 Z " fill="#FBF4F3" transform="translate(34,30)"/>
<path d="M0 0 C14 0 14 0 19 4 C20.53214888 7.06429776 20.22938548 9.6165642 20 13 C19.484375 13.825 18.96875 14.65 18.4375 15.5 C16.42090323 19.00712481 17.0879366 21.14127024 18 25 C18.65129797 26.34090759 19.31513275 27.67592331 20 29 C20 30.32 20 31.64 20 33 C17.69 33 15.38 33 13 33 C11.86235649 28.73383684 11 25.43513689 11 21 C9.35 21 7.7 21 6 21 C6 24.96 6 28.92 6 33 C4.02 33 2.04 33 0 33 C0 22.11 0 11.22 0 0 Z " fill="#F9EDEC" transform="translate(141,29)"/>
<path d="M0 0 C2.64 0 5.28 0 8 0 C8.99964751 4.37763573 9.99649154 8.75589739 10.99072266 13.13476562 C11.32946692 14.62485064 11.66898169 16.1147607 12.00927734 17.60449219 C12.49778851 19.74368684 12.98354091 21.88349179 13.46875 24.0234375 C13.62186646 24.69120209 13.77498291 25.35896667 13.93273926 26.04696655 C15 30.77225659 15 30.77225659 15 33 C12.69 33 10.38 33 8 33 C8 31.02 8 29.04 8 27 C5.03 27 2.06 27 -1 27 C-1 28.98 -1 30.96 -1 33 C-2.98 33 -4.96 33 -7 33 C-6.566875 31.1128125 -6.566875 31.1128125 -6.125 29.1875 C-5.35136803 25.71968118 -4.67407669 22.24986323 -4.0625 18.75 C-2.94456553 12.44484959 -1.48505752 6.2273412 0 0 Z " fill="#FAEFEE" transform="translate(60,29)"/>
<path d="M0 0 C1.21816406 0.03480469 1.21816406 0.03480469 2.4609375 0.0703125 C3.68683594 0.09738281 3.68683594 0.09738281 4.9375 0.125 C5.87722656 0.15980469 5.87722656 0.15980469 6.8359375 0.1953125 C11.40736607 7.48102679 11.40736607 7.48102679 10.8359375 12.1953125 C9.1859375 12.1953125 7.5359375 12.1953125 5.8359375 12.1953125 C5.1759375 10.8753125 4.5159375 9.5553125 3.8359375 8.1953125 C2.1859375 8.5253125 0.5359375 8.8553125 -1.1640625 9.1953125 C-1.21803585 11.6331088 -1.25771866 14.06970935 -1.2890625 16.5078125 C-1.30582031 17.19810547 -1.32257813 17.88839844 -1.33984375 18.59960938 C-1.37624044 22.36666646 -1.30785114 23.97962954 0.8359375 27.1953125 C2.1559375 26.8653125 3.4759375 26.5353125 4.8359375 26.1953125 C5.1659375 24.8753125 5.4959375 23.5553125 5.8359375 22.1953125 C4.5159375 22.1953125 3.1959375 22.1953125 1.8359375 22.1953125 C1.8359375 20.5453125 1.8359375 18.8953125 1.8359375 17.1953125 C5.1359375 17.1953125 8.4359375 17.1953125 11.8359375 17.1953125 C11.8359375 22.4753125 11.8359375 27.7553125 11.8359375 33.1953125 C10.8459375 33.1953125 9.8559375 33.1953125 8.8359375 33.1953125 C8.8359375 32.5353125 8.8359375 31.8753125 8.8359375 31.1953125 C8.1553125 31.7109375 7.4746875 32.2265625 6.7734375 32.7578125 C3.8359375 34.1953125 3.8359375 34.1953125 0.3359375 34.5078125 C-3.55926009 33.0471134 -4.1057208 32.42248712 -6.1015625 28.9453125 C-9.03780899 22.15888849 -9.66941411 14.73937387 -7.32421875 7.66015625 C-3.80528873 0.34343761 -3.80528873 0.34343761 0 0 Z " fill="#F9EBE9" transform="translate(106.1640625,28.8046875)"/>
<path d="M0 0 C1.32 0 2.64 0 4 0 C4 10.89 4 21.78 4 33 C2.35 33 0.7 33 -1 33 C-2.14785376 30.56343315 -3.29335402 28.12580719 -4.4375 25.6875 C-4.76298828 24.99720703 -5.08847656 24.30691406 -5.42382812 23.59570312 C-6.75487485 20.75522197 -8.00707934 17.97876197 -9 15 C-9.33 20.94 -9.66 26.88 -10 33 C-11.32 33 -12.64 33 -14 33 C-14 22.44 -14 11.88 -14 1 C-12.02 1 -10.04 1 -8 1 C-6.98758753 2.88923398 -5.99052575 4.78669944 -5 6.6875 C-4.443125 7.74324219 -3.88625 8.79898438 -3.3125 9.88671875 C-2.0327726 12.92226262 -1.71148957 14.76026826 -2 18 C-1.34 18 -0.68 18 0 18 C0 12.06 0 6.12 0 0 Z " fill="#FBF2F1" transform="translate(91,29)"/>
<path d="M0 0 C2.69990662 1.79993774 4.5418865 3.083773 6 6 C6.53789246 12.33058054 6.5599517 17.51174113 3 23 C2.34 23 1.68 23 1 23 C1 23.66 1 24.32 1 25 C-1.92241222 25.29224122 -4.15001241 25.47862387 -7 25 C-10.47712003 22.04444797 -10.85684919 20.16565662 -11.41015625 15.66015625 C-11.79475049 6.26225078 -11.79475049 6.26225078 -8.875 1.625 C-5.46418575 -0.30285153 -3.85187398 -0.72222637 0 0 Z " fill="#2F2F2F" transform="translate(90,145)"/>
<path d="M0 0 C5.28 0 10.56 0 16 0 C16 1.98 16 3.96 16 6 C12.37 6 8.74 6 5 6 C5 8.31 5 10.62 5 13 C7.97 13 10.94 13 14 13 C14 14.98 14 16.96 14 19 C11.03 19 8.06 19 5 19 C5 21.31 5 23.62 5 26 C8.63 26 12.26 26 16 26 C16 27.98 16 29.96 16 32 C10.72 32 5.44 32 0 32 C0 21.44 0 10.88 0 0 Z " fill="#FDF9F8" transform="translate(122,30)"/>
<path d="M0 0 C3.1850357 1.76015131 3.83296972 2.49890916 5 6 C5.37565867 11.15438635 5.75681518 16.45125495 3 21 C0.73869991 23.3420608 -0.75712643 23.94315725 -3.9375 24.6875 C-7.41572986 23.90667289 -7.87806157 23.42523945 -9.875 20.625 C-12.51779045 15.82535155 -12.86663887 11.36578534 -12 6 C-9.25077356 -0.12327708 -6.50526489 -0.44863896 0 0 Z " fill="#323232" transform="translate(85,107)"/>
<path d="M0 0 C2.0078125 0.23046875 2.0078125 0.23046875 5.0078125 2.23046875 C7.35412308 7.41705003 8.10651233 12.80936747 6.35546875 18.26171875 C5.4453125 20.16796875 5.4453125 20.16796875 3.0078125 23.23046875 C-0.4921875 24.41796875 -0.4921875 24.41796875 -3.9921875 24.23046875 C-7.00984888 22.02839153 -8.53597125 19.62208351 -9.9921875 16.23046875 C-10.78955761 10.53496794 -10.07829096 6.16823428 -6.9921875 1.23046875 C-5.11574989 -0.64596886 -2.49413049 0.05061888 0 0 Z " fill="#2F2F2F" transform="translate(48.9921875,106.76953125)"/>
<path d="M0 0 C9.9609375 -0.1953125 9.9609375 -0.1953125 13 0 C15 2 15 2 15.25 5.875 C15.20663525 8.54915972 15.10711653 9.80268008 13.8125 12.1875 C13.544375 12.785625 13.27625 13.38375 13 14 C14.3553326 16.53673288 14.3553326 16.53673288 16 19 C16 20.32 16 21.64 16 23 C14.02 23 12.04 23 10 23 C9.34 20.03 8.68 17.06 8 14 C7.01 14 6.02 14 5 14 C5 16.97 5 19.94 5 23 C3.35 23 1.7 23 0 23 C0 15.41 0 7.82 0 0 Z " fill="#353535" transform="translate(61,146)"/>
<path d="M0 0 C11.625 -0.25 11.625 -0.25 15 2 C15.56379822 8.99109792 15.56379822 8.99109792 13.8125 12.125 C13.544375 12.74375 13.27625 13.3625 13 14 C14.33333333 17.08333333 14.33333333 17.08333333 16 20 C16 20.99 16 21.98 16 23 C14.02 23 12.04 23 10 23 C9.80664062 22.43410156 9.61328125 21.86820313 9.4140625 21.28515625 C9.15367187 20.55167969 8.89328125 19.81820312 8.625 19.0625 C8.36976562 18.33160156 8.11453125 17.60070312 7.8515625 16.84765625 C7.14728587 14.81317884 7.14728587 14.81317884 5 14 C5 16.97 5 19.94 5 23 C3.35 23 1.7 23 0 23 C0 15.41 0 7.82 0 0 Z " fill="#282828" transform="translate(119,146)"/>
<path d="M0 0 C2.0625 1.75 2.0625 1.75 3 4 C2.67 5.32 2.34 6.64 2 8 C-0.97 7.67 -3.94 7.34 -7 7 C-7 10.63 -7 14.26 -7 18 C-5.35 18 -3.7 18 -2 18 C-1.67 17.01 -1.34 16.02 -1 15 C-1.99 15 -2.98 15 -4 15 C-4 13.68 -4 12.36 -4 11 C-1.36 11 1.28 11 4 11 C4 14.3 4 17.6 4 21 C3.01 21.33 2.02 21.66 1 22 C1 22.99 1 23.98 1 25 C-7.43501761 26.03185652 -7.43501761 26.03185652 -10.77734375 23.828125 C-14.31537446 19.52095718 -14.68030662 15.03281554 -14.43359375 9.59765625 C-13.79644322 5.78049318 -12.56932311 3.87159642 -10 1 C-6.81087077 -0.59456461 -3.46246175 -0.51583614 0 0 Z " fill="#383838" transform="translate(112,145)"/>
<path d="M0 0 C1.65 0 3.3 0 5 0 C5.84114171 1.43294498 6.67265687 2.87154405 7.5 4.3125 C8.19609375 5.51326172 8.19609375 5.51326172 8.90625 6.73828125 C10 9 10 9 10 12 C10.66 12 11.32 12 12 12 C12 8.37 12 4.74 12 1 C13.32 1 14.64 1 16 1 C16 8.59 16 16.18 16 24 C14.35 24 12.7 24 11 24 C9.35 20.7 7.7 17.4 6 14 C5.67 17.63 5.34 21.26 5 25 C3.35 25 1.7 25 0 25 C0 16.75 0 8.5 0 0 Z " fill="#2E2E2E" transform="translate(16,145)"/>
<path d="M0 0 C11.46740947 -0.36991643 11.46740947 -0.36991643 13.8671875 1.296875 C15.75297707 4.13206208 15.28930657 6.70190508 15 10 C14.608125 10.66 14.21625 11.32 13.8125 12 C12.6291957 14.26225155 12.6291957 14.26225155 14.375 17.625 C14.91125 18.73875 15.4475 19.8525 16 21 C16 21.66 16 22.32 16 23 C14.02 23 12.04 23 10 23 C9.34 20.03 8.68 17.06 8 14 C7.01 14 6.02 14 5 14 C5 16.97 5 19.94 5 23 C3.35 23 1.7 23 0 23 C0 15.41 0 7.82 0 0 Z " fill="#3C3C3C" transform="translate(22,107)"/>
<path d="M0 0 C1.65 0 3.3 0 5 0 C6.6875 2.25 6.6875 2.25 8 5 C8.66 6.32 9.32 7.64 10 9 C10.33 6.03 10.66 3.06 11 0 C12.65 0 14.3 0 16 0 C16 7.59 16 15.18 16 23 C14.35 23 12.7 23 11 23 C9.35 19.37 7.7 15.74 6 12 C5.67 15.63 5.34 19.26 5 23 C3.35 23 1.7 23 0 23 C0 15.41 0 7.82 0 0 Z " fill="#303030" transform="translate(151,107)"/>
<path d="M0 0 C2 3 2 3 2 7 C0.35 7 -1.3 7 -3 7 C-3 6.34 -3 5.68 -3 5 C-4.32 5 -5.64 5 -7 5 C-7 5.99 -7 6.98 -7 8 C-5.88625 8.1546875 -5.88625 8.1546875 -4.75 8.3125 C-1.58176076 9.10455981 -0.12055476 9.48674992 2 12 C2.80965452 16.30997911 2.73964316 19.78698522 0.4375 23.5625 C-2.96725314 25.57043134 -5.12220842 25.63454771 -9 25 C-11.77189158 21.78102913 -12 20.3064427 -12 16 C-10.35 16 -8.7 16 -7 16 C-6.67 16.99 -6.34 17.98 -6 19 C-5.01 19.33 -4.02 19.66 -3 20 C-3.19188156 18.060491 -3.19188156 18.060491 -4 16 C-5.83983424 14.65768558 -5.83983424 14.65768558 -8.0625 13.75 C-8.79597656 13.41484375 -9.52945313 13.0796875 -10.28515625 12.734375 C-10.85105469 12.49203125 -11.41695312 12.2496875 -12 12 C-12.25 4.375 -12.25 4.375 -10 1 C-6.457201 -0.180933 -3.71640139 -0.27028374 0 0 Z " fill="#323232" transform="translate(183,145)"/>
<path d="M0 0 C4.62 0 9.24 0 14 0 C14 1.65 14 3.3 14 5 C11.36 5 8.72 5 6 5 C6 5.99 6 6.98 6 8 C8.64 8 11.28 8 14 8 C14 9.65 14 11.3 14 13 C11.03 13 8.06 13 5 13 C5 14.65 5 16.3 5 18 C7.97 18 10.94 18 14 18 C14 19.65 14 21.3 14 23 C9.38 23 4.76 23 0 23 C0 15.41 0 7.82 0 0 Z " fill="#2D2D2D" transform="translate(137,146)"/>
<path d="M0 0 C2.4296875 0.03515625 2.4296875 0.03515625 4.5625 0.4375 C6.625 2.9375 6.625 2.9375 7.5625 5.4375 C3.7121895 8.00437367 1.97680237 7.27038724 -2.4375 6.4375 C-2.4375 9.7375 -2.4375 13.0375 -2.4375 16.4375 C-0.7875 16.7675 0.8625 17.0975 2.5625 17.4375 C2.8925 16.4475 3.2225 15.4575 3.5625 14.4375 C2.5725 14.4375 1.5825 14.4375 0.5625 14.4375 C0.5625 13.1175 0.5625 11.7975 0.5625 10.4375 C2.8725 10.4375 5.1825 10.4375 7.5625 10.4375 C8.33891328 19.47840125 8.33891328 19.47840125 5.4375 23.0625 C2.00945688 24.70199889 0.30305344 25.21678197 -3.4375 24.4375 C-6.8592161 21.68525009 -8.19855092 20.12246051 -8.81640625 15.765625 C-8.91646632 10.82932805 -8.59886375 6.93713627 -6.4375 2.4375 C-4.0454161 0.0454161 -3.28611114 0.09173052 0 0 Z " fill="#2E2E2E" transform="translate(178.4375,106.5625)"/>
<path d="M0 0 C1.21236328 0.04060547 1.21236328 0.04060547 2.44921875 0.08203125 C3.06410156 0.11683594 3.67898437 0.15164062 4.3125 0.1875 C5.7731285 2.83488916 6.3125 4.08198334 6.3125 7.1875 C4.6625 7.1875 3.0125 7.1875 1.3125 7.1875 C1.3125 6.5275 1.3125 5.8675 1.3125 5.1875 C-0.0075 5.1875 -1.3275 5.1875 -2.6875 5.1875 C-2.6875 6.1775 -2.6875 7.1675 -2.6875 8.1875 C-1.57375 8.3421875 -1.57375 8.3421875 -0.4375 8.5 C2.73073924 9.29205981 4.19194524 9.67424992 6.3125 12.1875 C6.82669736 15.24983092 6.92551427 18.13899663 6.3125 21.1875 C4.79011182 23.2825296 3.92284606 24.06198529 1.375 24.5859375 C-4.15046296 24.52314815 -4.15046296 24.52314815 -6.6875 22.9375 C-7.6875 21.1875 -7.6875 21.1875 -7.6875 17.1875 C-6.0375 17.1875 -4.3875 17.1875 -2.6875 17.1875 C-2.6875 17.8475 -2.6875 18.5075 -2.6875 19.1875 C-1.3675 19.5175 -0.0475 19.8475 1.3125 20.1875 C1.27294102 18.26440578 1.27294102 18.26440578 0.3125 16.1875 C-1.66166268 15.13741347 -3.66332866 14.13762124 -5.6875 13.1875 C-8.15074069 9.49263897 -8.07741688 7.55456908 -7.6875 3.1875 C-5.45128639 0.07531737 -3.72446132 -0.1619331 0 0 Z " fill="#2D2D2D" transform="translate(161.6875,144.8125)"/>
<path d="M0 0 C11 0 11 0 14 2 C14.3984375 4.05859375 14.3984375 4.05859375 14.375 6.4375 C14.38273437 7.21996094 14.39046875 8.00242188 14.3984375 8.80859375 C13.90917465 11.49953943 13.19058635 12.39663377 11 14 C7.8125 14.1875 7.8125 14.1875 5 14 C5 16.97 5 19.94 5 23 C3.35 23 1.7 23 0 23 C0 15.41 0 7.82 0 0 Z " fill="#262626" transform="translate(44,146)"/>
<path d="M0 0 C3.63 0 7.26 0 11 0 C14 3 14 3 14.3984375 4.9375 C14.33634021 10.40206186 14.33634021 10.40206186 12.875 13 C10.21065116 14.42098605 7.96508915 14.19767261 5 14 C5 16.97 5 19.94 5 23 C3.35 23 1.7 23 0 23 C0 15.41 0 7.82 0 0 Z " fill="#2E2E2E" transform="translate(126,107)"/>
<path d="M0 0 C3.63 0 7.26 0 11 0 C14 3 14 3 14.3984375 4.9375 C14.33634021 10.40206186 14.33634021 10.40206186 12.875 13 C10.21065116 14.42098605 7.96508915 14.19767261 5 14 C5 16.97 5 19.94 5 23 C3.35 23 1.7 23 0 23 C0 15.41 0 7.82 0 0 Z " fill="#2C2C2C" transform="translate(6,107)"/>
<path d="M0 0 C2.625 0.375 2.625 0.375 5 1 C5.33 2.32 5.66 3.64 6 5 C7.65 5 9.3 5 11 5 C11.33 3.68 11.66 2.36 12 1 C14.49118953 4.7367843 14.2065226 6.74451819 14.125 11.1875 C14.10695313 12.45980469 14.08890625 13.73210938 14.0703125 15.04296875 C14.04710938 16.01878906 14.02390625 16.99460937 14 18 C13.67 18 13.34 18 13 18 C13 15.36 13 12.72 13 10 C9.37 10 5.74 10 2 10 C2 11.65 2 13.3 2 15 C3.32 15 4.64 15 6 15 C5.67 16.65 5.34 18.3 5 20 C3.68 20.33 2.36 20.66 1 21 C-1.9312065 17.98371891 -2.36542237 15.57381327 -2.36132812 11.4140625 C-2.34521484 10.74117187 -2.32910156 10.06828125 -2.3125 9.375 C-2.31572266 8.694375 -2.31894531 8.01375 -2.32226562 7.3125 C-2.26742788 2.26742788 -2.26742788 2.26742788 0 0 Z " fill="#C63B29" transform="translate(106,36)"/>
<path d="M0 0 C1.98 0 3.96 0 6 0 C6.28875 0.639375 6.5775 1.27875 6.875 1.9375 C7.82823451 4.15206079 7.82823451 4.15206079 10 5 C10.66 3.35 11.32 1.7 12 0 C13.65 0 15.3 0 17 0 C16.51222439 2.53643319 15.86904555 4.21280098 14.5 6.4375 C12.24462814 11.79400816 12.24782221 17.24027011 12 23 C10.02 23 8.04 23 6 23 C5.98582031 22.23816406 5.97164063 21.47632813 5.95703125 20.69140625 C5.64879375 14.01848082 4.70174692 9.37720629 1.05859375 3.7421875 C0 2 0 2 0 0 Z " fill="#373737" transform="translate(107,107)"/>
<path d="M0 0 C4.95 0 9.9 0 15 0 C15 1.98 15 3.96 15 6 C13.35 6 11.7 6 10 6 C10 11.61 10 17.22 10 23 C8.35 23 6.7 23 5 23 C5 17.39 5 11.78 5 6 C3.35 6 1.7 6 0 6 C0 4.02 0 2.04 0 0 Z " fill="#313131" transform="translate(91,107)"/>
<path d="M0 0 C4.95 0 9.9 0 15 0 C15 1.98 15 3.96 15 6 C13.35 6 11.7 6 10 6 C10 11.61 10 17.22 10 23 C8.35 23 6.7 23 5 23 C5 17.39 5 11.78 5 6 C3.35 6 1.7 6 0 6 C0 4.02 0 2.04 0 0 Z " fill="#2E2E2E" transform="translate(57,107)"/>
<path d="M0 0 C0.33 0.99 0.66 1.98 1 3 C1.66 3 2.32 3 3 3 C3.185625 4.2375 3.37125 5.475 3.5625 6.75 C4.19463723 9.39092886 4.59329044 10.65810097 6.69140625 12.421875 C8.8254551 13.64991382 8.8254551 13.64991382 12 15 C12 16.32 12 17.64 12 19 C10.68 18.67 9.36 18.34 8 18 C8 17.34 8 16.68 8 16 C6.35 16 4.7 16 3 16 C3 16.66 3 17.32 3 18 C2.34 18 1.68 18 1 18 C1 19.65 1 21.3 1 23 C0.67 23 0.34 23 0 23 C0 21.35 0 19.7 0 18 C-2.97 18 -5.94 18 -9 18 C-9 16.35 -9 14.7 -9 13 C-6.03 13 -3.06 13 0 13 C0 11.35 0 9.7 0 8 C-2.64 8 -5.28 8 -8 8 C-8 7.01 -8 6.02 -8 5 C-5.36 5 -2.72 5 0 5 C0 3.35 0 1.7 0 0 Z " fill="#E3E3E3" transform="translate(151,146)"/>
<path d="M0 0 C5 0 5 0 6.7890625 1.0625 C8.63276642 4.01242628 8.39650623 6.55900283 8.375 10 C8.38273437 11.2375 8.39046875 12.475 8.3984375 13.75 C8 17 8 17 6.7890625 18.9375 C5 20 5 20 0 20 C0 13.4 0 6.8 0 0 Z " fill="#C43220" transform="translate(39,36)"/>
<path d="M0 0 C1.98 0 3.96 0 6 0 C6 7.92 6 15.84 6 24 C4.02 24 2.04 24 0 24 C0 16.08 0 8.16 0 0 Z " fill="#3D3D3D" transform="translate(7,146)"/>
<path d="M0 0 C1.98 0 3.96 0 6 0 C6 7.59 6 15.18 6 23 C4.02 23 2.04 23 0 23 C0 15.41 0 7.82 0 0 Z " fill="#454545" transform="translate(142,107)"/>
<path d="M0 0 C1.32 0 2.64 0 4 0 C4 0.66 4 1.32 4 2 C5.65 2 7.3 2 9 2 C9.33 1.34 9.66 0.68 10 0 C10.66 0 11.32 0 12 0 C12 1.0725 12 2.145 12 3.25 C12.57686175 6.98641311 12.57686175 6.98641311 14.84765625 8.35546875 C16.87193771 9.34440343 18.88537164 10.2244757 21 11 C21 12.32 21 13.64 21 15 C19.68 14.67 18.36 14.34 17 14 C17 13.01 17 12.02 17 11 C15.35 11 13.7 11 12 11 C12.33 12.98 12.66 14.96 13 17 C12.38125 17.12375 11.7625 17.2475 11.125 17.375 C8.80879168 17.87197356 8.80879168 17.87197356 7 20 C4.8359375 20.1953125 4.8359375 20.1953125 2.375 20.125 C1.55773437 20.10695312 0.74046875 20.08890625 -0.1015625 20.0703125 C-0.72804687 20.04710937 -1.35453125 20.02390625 -2 20 C-2 19.67 -2 19.34 -2 19 C-0.72125 18.87625 0.5575 18.7525 1.875 18.625 C5.34790936 18.30957601 5.34790936 18.30957601 8 16 C8.24253813 13.78927023 8.24253813 13.78927023 8.125 11.375 C8.063125 9.209375 8.063125 9.209375 8 7 C5.36 5.68 2.72 4.36 0 3 C0 2.01 0 1.02 0 0 Z " fill="#F4F4F4" transform="translate(159,150)"/>
<path d="M0 0 C0.66 0.33 1.32 0.66 2 1 C2 1.99 2 2.98 2 4 C1.01 4.495 1.01 4.495 0 5 C0.33 5.66 0.66 6.32 1 7 C-1.31 7 -3.62 7 -6 7 C-6 8.32 -6 9.64 -6 11 C-5.01 11 -4.02 11 -3 11 C-3.33 12.32 -3.66 13.64 -4 15 C-8.875 14.125 -8.875 14.125 -10 13 C-10.07205511 11.31391034 -10.08386068 9.62499341 -10.0625 7.9375 C-10.05347656 7.01839844 -10.04445312 6.09929687 -10.03515625 5.15234375 C-10.02355469 4.44207031 -10.01195312 3.73179688 -10 3 C-6.71303767 2.20046862 -5.28976808 1.90341064 -2 3 C-1.34 2.67 -0.68 2.34 0 2 C0 1.34 0 0.68 0 0 Z " fill="#D1D1D1" transform="translate(185,110)"/>
<path d="M0 0 C3.57416264 0.49641148 6.69252492 1.58251068 10 3 C10 3.66 10 4.32 10 5 C7.69 5 5.38 5 3 5 C3 6.32 3 7.64 3 9 C3.99 9 4.98 9 6 9 C5.67 10.32 5.34 11.64 5 13 C3.33388095 13.042721 1.66617115 13.04063832 0 13 C-1 12 -1 12 -1.1328125 9.53125 C-1.13023438 8.5309375 -1.12765625 7.530625 -1.125 6.5 C-1.12757812 5.4996875 -1.13015625 4.499375 -1.1328125 3.46875 C-1 1 -1 1 0 0 Z " fill="#DADADA" transform="translate(105,151)"/>
<path d="M0 0 C4.875 0.875 4.875 0.875 6 2 C6.16796875 3.99609375 6.16796875 3.99609375 6.1875 6.4375 C6.20167969 7.24058594 6.21585937 8.04367188 6.23046875 8.87109375 C6 11 6 11 4 13 C2.68 13 1.36 13 0 13 C-1.57170996 9.85658007 -1.23175783 6.44228549 -1 3 C-0.67 2.01 -0.34 1.02 0 0 Z " fill="#E7E7E7" transform="translate(85,151)"/>
<path d="M0 0 C3.53571429 0.53571429 3.53571429 0.53571429 5 2 C5.23529412 9.29411765 5.23529412 9.29411765 4 13 C1.5625 12.625 1.5625 12.625 -1 12 C-2.11445498 9.77109005 -2.16480286 8.46944894 -2.1875 6 C-2.20167969 5.29875 -2.21585938 4.5975 -2.23046875 3.875 C-2 2 -2 2 0 0 Z " fill="#F5F5F5" transform="translate(46,112)"/>
<path d="M0 0 C3.53571429 0.53571429 3.53571429 0.53571429 5 2 C5.16796875 3.99609375 5.16796875 3.99609375 5.1875 6.4375 C5.20167969 7.24058594 5.21585937 8.04367188 5.23046875 8.87109375 C5 11 5 11 3 13 C0.9375 12.8125 0.9375 12.8125 -1 12 C-2.17353189 8.47940432 -2.20146402 5.693507 -2 2 C-1.34 1.34 -0.68 0.68 0 0 Z " fill="#F7F7F7" transform="translate(80,112)"/>
<path d="M0 0 C0.33 0 0.66 0 1 0 C1.02887236 3.81248426 1.04675492 7.6249407 1.0625 11.4375 C1.07087891 12.52611328 1.07925781 13.61472656 1.08789062 14.73632812 C1.09111328 15.77080078 1.09433594 16.80527344 1.09765625 17.87109375 C1.10289307 18.82943115 1.10812988 19.78776855 1.11352539 20.77514648 C1 23 1 23 0 24 C-2.33297433 24.04092937 -4.66705225 24.04241723 -7 24 C-7 23.67 -7 23.34 -7 23 C-5.02 23 -3.04 23 -1 23 C-1.32355469 22.45472656 -1.64710938 21.90945312 -1.98046875 21.34765625 C-5.19512195 15.26166233 -5.19512195 15.26166233 -4.59765625 11.3984375 C-3.83890186 9.19560216 -3.01170045 7.09779063 -2 5 C-1.67 5 -1.34 5 -1 5 C-0.67 3.35 -0.34 1.7 0 0 Z " fill="#CCCCCC" transform="translate(136,146)"/>
<path d="M0 0 C2.02211493 3.03317239 2.24140895 3.87199333 2.4375 7.3125 C2.80094116 11.4314998 3.87793866 14.40172207 6 18 C4.68 17.67 3.36 17.34 2 17 C1.67 17.66 1.34 18.32 1 19 C0.27249212 17.59308393 -0.43140353 16.17393978 -1.125 14.75 C-1.51945312 13.96109375 -1.91390625 13.1721875 -2.3203125 12.359375 C-3 10 -3 10 -2.15625 7.90625 C-1.7746875 7.2771875 -1.393125 6.648125 -1 6 C-0.61709538 4.00889599 -0.27395385 2.00899487 0 0 Z " fill="#E4E4E4" transform="translate(37,111)"/>
<path d="M0 0 C1.99954746 -0.04254356 4.00041636 -0.04080783 6 0 C7 1 7 1 7.125 4 C7 7 7 7 6 8 C4.00041636 8.04080783 1.99954746 8.04254356 0 8 C0 5.36 0 2.72 0 0 Z " fill="#C53725" transform="translate(147,36)"/>
<path d="M0 0 C1.48828125 1.11328125 1.48828125 1.11328125 3 3 C3.29296875 5.91796875 3.29296875 5.91796875 3.1875 9.1875 C3.14689453 10.81751953 3.14689453 10.81751953 3.10546875 12.48046875 C3.07066406 13.31191406 3.03585938 14.14335937 3 15 C2.01 15.33 1.02 15.66 0 16 C-1.625 13.75 -1.625 13.75 -3 11 C-2.25 9.125 -2.25 9.125 -1 7 C-0.61250787 4.67504723 -0.27017161 2.34148732 0 0 Z " fill="#D7D7D7" transform="translate(76,149)"/>
<path d="M0 0 C2.97 0 5.94 0 9 0 C11 4 11 4 11 7 C9.35 7 7.7 7 6 7 C6 6.34 6 5.68 6 5 C4.68 4.67 3.36 4.34 2 4 C2.99 4 3.98 4 5 4 C5 3.34 5 2.68 5 2 C3.02 2 1.04 2 -1 2 C-0.67 1.34 -0.34 0.68 0 0 Z " fill="#4E4E4E" transform="translate(157,145)"/>
<path d="M0 0 C2.52259061 1.97420135 2.9929808 2.96745642 3.6875 6.1875 C3.790625 7.115625 3.89375 8.04375 4 9 C3.38125 9.12375 2.7625 9.2475 2.125 9.375 C-0.19120832 9.87197356 -0.19120832 9.87197356 -2 12 C-4.1640625 12.1953125 -4.1640625 12.1953125 -6.625 12.125 C-7.44226563 12.10695312 -8.25953125 12.08890625 -9.1015625 12.0703125 C-9.72804687 12.04710937 -10.35453125 12.02390625 -11 12 C-11 11.67 -11 11.34 -11 11 C-9.72125 10.87625 -8.4425 10.7525 -7.125 10.625 C-3.65209064 10.30957601 -3.65209064 10.30957601 -1 8 C-0.54188325 6.02764667 -0.54188325 6.02764667 -0.375 3.875 C-0.25125 2.59625 -0.1275 1.3175 0 0 Z " fill="#ACACAC" transform="translate(168,158)"/>
<path d="M0 0 C0.66 0 1.32 0 2 0 C2 7.59 2 15.18 2 23 C1.67 23 1.34 23 1 23 C0.67 17.39 0.34 11.78 0 6 C-0.66 6 -1.32 6 -2 6 C-1.34 4.02 -0.68 2.04 0 0 Z " fill="#E0E0E0" transform="translate(124,107)"/>
<path d="M0 0 C0.33 0 0.66 0 1 0 C1.144375 1.0725 1.28875 2.145 1.4375 3.25 C1.85389686 6.75877508 1.85389686 6.75877508 2.6875 9.0625 C3.16363112 12.01451293 2.05701147 14.26420561 1 17 C0.01 16.34 -0.98 15.68 -2 15 C-1.34 10.05 -0.68 5.1 0 0 Z " fill="#CF594B" transform="translate(53,42)"/>
<path d="M0 0 C0 3.63 0 7.26 0 11 C-3.03869411 9.48065294 -3.64410306 7.01995228 -5 4 C-5 3.34 -5 2.68 -5 2 C-1.125 0 -1.125 0 0 0 Z " fill="#F3F3F3" transform="translate(136,156)"/>
<path d="M0 0 C1.98 0.66 3.96 1.32 6 2 C6 3.32 6 4.64 6 6 C4.68 5.67 3.36 5.34 2 5 C2 4.34 2 3.68 2 3 C0.35 3 -1.3 3 -3 3 C-3.33 3.66 -3.66 4.32 -4 5 C-4 4.01 -4 3.02 -4 2 C-2.68 2 -1.36 2 0 2 C0 1.34 0 0.68 0 0 Z " fill="#CCCCCC" transform="translate(157,159)"/>
<path d="M0 0 C2.475 0.495 2.475 0.495 5 1 C4.67 2.65 4.34 4.3 4 6 C2.68 6 1.36 6 0 6 C0 4.02 0 2.04 0 0 Z " fill="#B3B3B3" transform="translate(124,150)"/>
<path d="M0 0 C3.53571429 0.53571429 3.53571429 0.53571429 5 2 C5.07179964 3.51928038 5.08392007 5.04167482 5.0625 6.5625 C5.05347656 7.38878906 5.04445313 8.21507813 5.03515625 9.06640625 C5.01775391 10.02353516 5.01775391 10.02353516 5 11 C4.67 11 4.34 11 4 11 C3.67 8.36 3.34 5.72 3 3 C2.01 3.33 1.02 3.66 0 4 C-0.33 5.65 -0.66 7.3 -1 9 C-1.33 9 -1.66 9 -2 9 C-2.125 5.625 -2.125 5.625 -2 2 C-1.34 1.34 -0.68 0.68 0 0 Z " fill="#C3C3C3" transform="translate(80,112)"/>
<path d="M0 0 C3.53571429 0.53571429 3.53571429 0.53571429 5 2 C5.14115161 4.67058851 5.04247107 7.32432238 5 10 C4.67 10 4.34 10 4 10 C3.67 7.69 3.34 5.38 3 3 C2.01 3.33 1.02 3.66 0 4 C-0.33 5.98 -0.66 7.96 -1 10 C-1.33 10 -1.66 10 -2 10 C-2.1953125 3.9453125 -2.1953125 3.9453125 -2 2 C-1.34 1.34 -0.68 0.68 0 0 Z " fill="#C7C7C7" transform="translate(46,112)"/>
<path d="M0 0 C2.01136276 2.55991624 3.62845496 5.04590299 5 8 C3.68 7.67 2.36 7.34 1 7 C0.67 7.66 0.34 8.32 0 9 C-0.66 6.69 -1.32 4.38 -2 2 C-1.34 2 -0.68 2 0 2 C0 1.34 0 0.68 0 0 Z " fill="#D9D9D9" transform="translate(38,121)"/>
<path d="M0 0 C1.98 0.99 3.96 1.98 6 3 C6 4.32 6 5.64 6 7 C4.68 6.67 3.36 6.34 2 6 C2 5.01 2 4.02 2 3 C1.34 3 0.68 3 0 3 C0 2.01 0 1.02 0 0 Z " fill="#DFDFDF" transform="translate(174,158)"/>
<path d="M0 0 C1.32 0 2.64 0 4 0 C4 0.66 4 1.32 4 2 C5.65 2 7.3 2 9 2 C8.01 2.495 8.01 2.495 7 3 C7 3.66 7 4.32 7 5 C4.69 4.34 2.38 3.68 0 3 C0 2.01 0 1.02 0 0 Z " fill="#C8C8C8" transform="translate(176,150)"/>
<path d="M0 0 C1.32 0 2.64 0 4 0 C4 0.66 4 1.32 4 2 C5.65 2 7.3 2 9 2 C8.01 2.495 8.01 2.495 7 3 C7 3.66 7 4.32 7 5 C4.69 4.34 2.38 3.68 0 3 C0 2.01 0 1.02 0 0 Z " fill="#CACACA" transform="translate(159,150)"/>
<path d="M0 0 C1.85776765 3.13498292 2.20140476 5.37471432 2 9 C1.01 9 0.02 9 -1 9 C-1.09765625 2.84765625 -1.09765625 2.84765625 -1 1 C-0.67 0.67 -0.34 0.34 0 0 Z " fill="#CE5748" transform="translate(63,41)"/>
<path d="M0 0 C-1.44077046 3.36179774 -3.24750021 5.59156268 -6 8 C-6.66 8 -7.32 8 -8 8 C-6.48291727 4.46014029 -4.24676932 0 0 0 Z " fill="#CBCBCB" transform="translate(24,25)"/>
<path d="M0 0 C1.32 0 2.64 0 4 0 C3.67 1.65 3.34 3.3 3 5 C2.01 5 1.02 5 0 5 C0 3.35 0 1.7 0 0 Z " fill="#C7C7C7" transform="translate(49,151)"/>
<path d="M0 0 C1.32 0 2.64 0 4 0 C3.67 1.65 3.34 3.3 3 5 C2.01 5 1.02 5 0 5 C0 3.35 0 1.7 0 0 Z " fill="#D3D3D3" transform="translate(11,112)"/>
<path d="M0 0 C1.32 0 2.64 0 4 0 C3.67 1.65 3.34 3.3 3 5 C2.01 5 1.02 5 0 5 C0 3.35 0 1.7 0 0 Z " fill="#CFCFCF" transform="translate(131,112)"/>
<path d="M0 0 C-0.33 0.66 -0.66 1.32 -1 2 C-3.32495277 2.38749213 -5.6599583 2.71758117 -8 3 C-8.99 3.33 -9.98 3.66 -11 4 C-10.67 3.01 -10.34 2.02 -10 1 C-6.52674819 -0.1577506 -3.63932552 -0.06866652 0 0 Z " fill="#6B6B6B" transform="translate(183,145)"/>
</svg>
